<?xml version="1.0" encoding="UTF-8" standalone="no"?>
<!-- Created with Inkscape (http://www.inkscape.org/) -->

<svg
   width="48"
   height="48"
   viewBox="0 0 12.7 12.7"
   version="1.1"
   id="svg1"
   inkscape:version="1.4.3 (0d15f75042, 2025-12-25)"
   sodipodi:docname="github.svg"
   xml:space="preserve"
   xmlns:inkscape="http://www.inkscape.org/namespaces/inkscape"
   xmlns:sodipodi="http://sodipodi.sourceforge.net/DTD/sodipodi-0.dtd"
   xmlns="http://www.w3.org/2000/svg"
   xmlns:svg="http://www.w3.org/2000/svg"><sodipodi:namedview
     id="namedview1"
     pagecolor="#ffffff"
     bordercolor="#eeeeee"
     borderopacity="1"
     inkscape:showpageshadow="0"
     inkscape:pageopacity="0"
     inkscape:pagecheckerboard="0"
     inkscape:deskcolor="#d1d1d1"
     inkscape:document-units="mm"
     inkscape:zoom="4"
     inkscape:cx="-26.25"
     inkscape:cy="-20.625"
     inkscape:window-width="2560"
     inkscape:window-height="1356"
     inkscape:window-x="0"
     inkscape:window-y="0"
     inkscape:window-maximized="1"
     inkscape:current-layer="layer1" /><defs
     id="defs1" /><g
     inkscape:label="Layer 1"
     inkscape:groupmode="layer"
     id="layer1"><path
       d="m 6.3499968,1.4608861 c -2.742483,0 -4.9636746,2.2211916 -4.9636746,4.9636746 0,2.3327157 1.6006265,4.2687603 3.7601419,4.8145533 -0.024924,-0.0621 -0.037174,-0.149121 -0.037174,-0.235722 V 10.159356 H 4.4887244 c -0.3349952,0 -0.6454888,-0.1487 -0.7819371,-0.4220178 C 3.5454159,9.4395176 3.5204911,8.9803248 3.1111462,8.6947553 2.9869493,8.5954823 3.0862223,8.4962083 3.2226714,8.5084589 3.4833173,8.5828079 3.6941149,8.756854 3.8926619,9.0170772 4.091209,9.277723 4.1782316,9.3398215 4.5504016,9.3398215 c 0.173623,0 0.4465194,-0.012245 0.6949144,-0.049848 C 5.3817652,8.9423053 5.6174862,8.6322341 5.9030557,8.4835349 4.2403304,8.284988 3.4461424,7.4658762 3.4461424,6.3489437 c 0,-0.4841166 0.2107978,-0.9433092 0.5584663,-1.3404032 C 3.8930835,4.6236973 3.743963,3.8295093 4.0544567,3.5194381 c 0.7447624,0 1.1912819,0.4841167 1.3028063,0.6078917 0.3721698,-0.1241969 0.7819371,-0.198547 1.2035326,-0.198547 0.4342687,0 0.8313627,0.074349 1.2035327,0.198547 0.1115252,-0.1241969 0.5584661,-0.6078917 1.3028061,-0.6078917 0.2978204,0.2978203 0.1613732,1.1042592 0.037174,1.4891024 0.3476683,0.3848431 0.5462153,0.8562866 0.5462153,1.3404032 0,1.1169325 -0.781937,1.9360443 -2.4319891,2.1096673 0.4591925,0.2357217 0.7819369,0.9057123 0.7819369,1.4020801 v 1.1304499 c 0,0.03717 -0.012245,0.07435 -0.012245,0.111526 1.9356223,-0.669991 3.3254515,-2.5063396 3.3254515,-4.6781055 0,-2.7424829 -2.2211926,-4.9636746 -4.9636756,-4.9636746 z"
       id="path1"
       style="stroke-width:0.264582" /></g></svg>
