<?xml version="1.0" encoding="UTF-8" standalone="no"?>
<!-- Created with Inkscape (http://www.inkscape.org/) -->

<svg
   width="80"
   height="32"
   viewBox="0 0 21.166667 8.4666666"
   version="1.1"
   id="svg1"
   inkscape:version="1.4.3 (0d15f75042, 2025-12-25)"
   sodipodi:docname="logo_logic.svg"
   xmlns:inkscape="http://www.inkscape.org/namespaces/inkscape"
   xmlns:sodipodi="http://sodipodi.sourceforge.net/DTD/sodipodi-0.dtd"
   xmlns="http://www.w3.org/2000/svg"
   xmlns:svg="http://www.w3.org/2000/svg">
  <sodipodi:namedview
     id="namedview1"
     pagecolor="#c8c8c8"
     bordercolor="#eeeeee"
     borderopacity="1"
     inkscape:showpageshadow="0"
     inkscape:pageopacity="0"
     inkscape:pagecheckerboard="0"
     inkscape:deskcolor="#d1d1d1"
     inkscape:document-units="mm"
     inkscape:zoom="11.197603"
     inkscape:cx="49.117654"
     inkscape:cy="19.691714"
     inkscape:window-width="2560"
     inkscape:window-height="1356"
     inkscape:window-x="0"
     inkscape:window-y="0"
     inkscape:window-maximized="1"
     inkscape:current-layer="layer1" />
  <defs
     id="defs1" />
  <g
     inkscape:label="Layer 1"
     inkscape:groupmode="layer"
     id="layer1">
    <path
       id="path4"
       style="color:#000000;fill:#000000;fill-opacity:1;stroke-width:0.999999;-inkscape-stroke:none"
       d="M 3.5186483 0.56895752 L 3.5186483 5.3836507 L 2.7347168 5.3836507 C 2.377698 5.3836507 2.0502298 5.1946776 1.8717204 4.8854899 C 1.693211 4.5763059 1.693211 4.1978399 1.8717204 3.8886515 C 2.0502298 3.579467 2.377698 3.389974 2.7347168 3.389974 L 2.7347168 2.2939168 C 1.9879095 2.2939168 1.2958236 2.6936123 0.92242432 3.3403646 C 0.54902513 3.9871215 0.54902065 4.7865073 0.92242432 5.4332601 C 1.2958236 6.0800188 1.9879095 6.4797078 2.7347168 6.4797078 L 4.6141886 6.4797078 L 4.6141886 4.2421183 L 6.0130697 4.2421183 L 6.0130697 6.0187541 C 6.0130697 6.7142528 6.3957949 7.355581 7.0037069 7.6977214 C 7.6116187 8.0398609 8.3563988 8.0398609 8.9643107 7.6977214 C 9.4806676 7.4071126 9.8342027 6.9004467 9.9291097 6.3282959 L 11.908834 6.3282959 L 11.908834 5.2322388 L 9.9549479 5.2322388 L 9.9549479 2.7548706 C 9.9549479 2.0593732 9.5722271 1.418559 8.9643107 1.0764201 C 8.6603547 0.90535081 8.3226671 0.81958822 7.9845256 0.81958822 C 7.6463842 0.81958822 7.3076629 0.9053499 7.0037069 1.0764201 C 6.3957949 1.418559 6.0130697 2.0593713 6.0130697 2.7548706 L 6.0130697 3.1460612 L 4.6141886 3.1460612 L 4.6141886 0.56895752 L 3.5186483 0.56895752 z M 7.9845256 1.9161621 C 8.1377295 1.9161621 8.2905633 1.9546851 8.4268758 2.0314006 C 8.6994779 2.1848275 8.8588908 2.4592327 8.8588908 2.7548706 L 8.8588908 6.0187541 C 8.8588908 6.3143933 8.6994826 6.589313 8.4268758 6.7427409 C 8.15426 6.8961714 7.8142698 6.8961714 7.5416585 6.7427409 C 7.2690473 6.5893133 7.1091268 6.3143932 7.1091268 6.0187541 L 7.1091268 2.7548706 C 7.1091268 2.4592345 7.2690518 2.1848275 7.5416585 2.0314006 C 7.6779664 1.9546876 7.8313308 1.9161624 7.9845256 1.9161621 z M 13.638961 4.3444377 C 13.049058 4.3444377 12.564608 4.8268979 12.564608 5.4162069 C 12.564608 6.0055179 13.049058 6.4879761 13.638961 6.4879761 C 14.228867 6.4879761 14.712797 6.0055179 14.712797 5.4162069 C 14.712797 4.8268979 14.228867 4.3444377 13.638961 4.3444377 z M 16.267224 4.3444377 C 15.677318 4.3444377 15.192871 4.8268979 15.192871 5.4162069 C 15.192871 6.0055179 15.677318 6.4879761 16.267224 6.4879761 C 16.589388 6.4879761 16.84445 6.74275 16.84445 7.062618 C 16.84445 7.382485 16.58939 7.6372599 16.267224 7.6372599 L 15.642456 7.6372599 L 15.642456 8.1338704 L 16.267224 8.1338704 C 16.857126 8.1338704 17.341577 7.651927 17.341577 7.062618 C 17.341577 6.732793 17.189426 6.4364054 16.952454 6.2394124 C 17.189426 6.0424204 17.341577 5.7460329 17.341577 5.4162069 C 17.341577 4.8268979 16.857128 4.3444377 16.267224 4.3444377 z M 20.010148 4.3444377 C 19.420245 4.3444377 18.935795 4.8268979 18.935795 5.4162069 C 18.935795 6.0055179 19.420246 6.4879761 20.010148 6.4879761 L 20.634399 6.4879761 L 20.882963 6.4879761 L 20.882963 5.9908488 L 20.634399 5.9908488 L 20.010148 5.9908488 C 19.687982 5.9908488 19.432922 5.7360749 19.432922 5.4162069 C 19.432922 5.0963399 19.687983 4.8415649 20.010148 4.8415649 L 20.258712 4.8415649 L 20.258712 4.3444377 L 20.010148 4.3444377 z M 17.896582 4.4736287 L 17.896582 6.3593018 L 18.393709 6.3593018 L 18.393709 4.4736287 L 17.896582 4.4736287 z M 13.638961 4.8415649 C 13.961129 4.8415649 14.21567 5.0963399 14.21567 5.4162069 C 14.21567 5.7360759 13.961129 5.9908488 13.638961 5.9908488 C 13.316794 5.9908488 13.061735 5.7360759 13.061735 5.4162069 C 13.061735 5.0963399 13.316794 4.8415649 13.638961 4.8415649 z M 16.267224 4.8415649 C 16.589392 4.8415649 16.84445 5.0963399 16.84445 5.4162069 C 16.84445 5.7360759 16.589392 5.9908488 16.267224 5.9908488 C 15.945056 5.9908488 15.689998 5.7360759 15.689998 5.4162069 C 15.689998 5.0963399 15.945056 4.8415649 16.267224 4.8415649 z " />
  </g>
</svg>
