<?xml version="1.0" encoding="UTF-8" standalone="no"?>
<!-- Created with Inkscape (http://www.inkscape.org/) -->

<svg
   width="80"
   height="32"
   viewBox="0 0 21.166667 8.4666666"
   version="1.1"
   id="svg1"
   inkscape:version="1.4.3 (0d15f75042, 2025-12-25)"
   sodipodi:docname="logo_logic.svg"
   xmlns:inkscape="http://www.inkscape.org/namespaces/inkscape"
   xmlns:sodipodi="http://sodipodi.sourceforge.net/DTD/sodipodi-0.dtd"
   xmlns="http://www.w3.org/2000/svg"
   xmlns:svg="http://www.w3.org/2000/svg">
  <sodipodi:namedview
     id="namedview1"
     pagecolor="#c8c8c8"
     bordercolor="#eeeeee"
     borderopacity="1"
     inkscape:showpageshadow="0"
     inkscape:pageopacity="0"
     inkscape:pagecheckerboard="0"
     inkscape:deskcolor="#d1d1d1"
     inkscape:document-units="mm"
     inkscape:zoom="11.197603"
     inkscape:cx="45.90268"
     inkscape:cy="6.385295"
     inkscape:window-width="2560"
     inkscape:window-height="1356"
     inkscape:window-x="0"
     inkscape:window-y="0"
     inkscape:window-maximized="1"
     inkscape:current-layer="layer1" />
  <defs
     id="defs1" />
  <g
     inkscape:label="Layer 1"
     inkscape:groupmode="layer"
     id="layer1">
    <path
       id="path4"
       style="color:#000000;fill:#000000;fill-opacity:1;stroke-width:0.999999;-inkscape-stroke:none"
       d="M 3.5186483 0.56895752 L 3.5186483 5.3836507 L 2.7347168 5.3836507 C 2.377698 5.3836507 2.0502298 5.1946776 1.8717204 4.8854899 C 1.693211 4.5763059 1.693211 4.1978399 1.8717204 3.8886515 C 2.0502298 3.579467 2.377698 3.389974 2.7347168 3.389974 L 2.7347168 2.2939168 C 1.9879095 2.2939168 1.2958236 2.6936123 0.92242432 3.3403646 C 0.54902513 3.9871215 0.54902065 4.7865073 0.92242432 5.4332601 C 1.2958236 6.0800188 1.9879095 6.4797078 2.7347168 6.4797078 L 4.6141886 6.4797078 L 4.6141886 4.2421183 L 6.0130697 4.2421183 L 6.0130697 6.0187541 C 6.0130697 6.7142528 6.3957949 7.355581 7.0037069 7.6977214 C 7.6116187 8.0398609 8.3563988 8.0398609 8.9643107 7.6977214 C 9.4806676 7.4071126 9.8342027 6.9004467 9.9291097 6.3282959 L 11.908834 6.3282959 L 11.908834 5.2322388 L 9.9549479 5.2322388 L 9.9549479 2.7548706 C 9.9549479 2.0593732 9.5722271 1.418559 8.9643107 1.0764201 C 8.6603547 0.90535083 8.3226671 0.81958822 7.9845256 0.81958822 C 7.6463842 0.81958822 7.3076629 0.90534993 7.0037069 1.0764201 C 6.3957949 1.418559 6.0130697 2.0593713 6.0130697 2.7548706 L 6.0130697 3.1460612 L 4.6141886 3.1460612 L 4.6141886 0.56895752 L 3.5186483 0.56895752 z M 7.9845256 1.9161621 C 8.1377295 1.9161621 8.2905633 1.9546854 8.4268758 2.0314006 C 8.6994779 2.1848275 8.8588908 2.4592327 8.8588908 2.7548706 L 8.8588908 6.0187541 C 8.8588908 6.3143933 8.6994826 6.589313 8.4268758 6.7427409 C 8.15426 6.8961714 7.8142698 6.8961714 7.5416585 6.7427409 C 7.2690473 6.5893133 7.1091268 6.3143932 7.1091268 6.0187541 L 7.1091268 2.7548706 C 7.1091268 2.4592345 7.2690518 2.1848275 7.5416585 2.0314006 C 7.6779664 1.9546876 7.8313308 1.9161624 7.9845256 1.9161621 z M 13.617773 4.3418538 C 13.025851 4.3418538 12.539286 4.8264303 12.539286 5.4177572 C 12.539286 6.0090842 13.025851 6.4921102 13.617773 6.4921102 C 14.209695 6.4921102 14.695744 6.0090842 14.695744 5.4177572 C 14.695744 4.8264303 14.209695 4.3418538 13.617773 4.3418538 z M 16.254305 4.3418538 C 15.662383 4.3418538 15.176335 4.8264303 15.176335 5.4177572 C 15.176335 6.0090842 15.662383 6.4921102 16.254305 6.4921102 C 16.846227 6.4921102 17.332275 6.0090842 17.332275 5.4177572 C 17.332275 4.8264303 16.846227 4.3418538 16.254305 4.3418538 z M 20.010148 4.3418538 C 19.418226 4.3418538 18.932178 4.8264311 18.932178 5.4177572 C 18.932178 6.0090834 19.418227 6.4921102 20.010148 6.4921102 L 20.636983 6.4921102 L 20.88503 6.4921102 L 20.88503 5.9939494 L 20.636983 5.9939494 L 20.010148 5.9939494 C 19.686879 5.9939494 19.431889 5.7387189 19.431889 5.4177572 C 19.431889 5.0967958 19.68688 4.8415649 20.010148 4.8415649 L 20.260262 4.8415649 L 20.260262 4.3418538 L 20.010148 4.3418538 z M 17.888831 4.4705282 L 17.888831 6.3634359 L 18.389058 6.3634359 L 18.389058 4.4705282 L 17.888831 4.4705282 z M 13.617773 4.8415649 C 13.941043 4.8415649 14.195516 5.0967951 14.195516 5.4177572 C 14.195516 5.7387194 13.941043 5.9939494 13.617773 5.9939494 C 13.294503 5.9939494 13.037447 5.7387194 13.037447 5.4177572 C 13.037447 5.0967951 13.294503 4.8415649 13.617773 4.8415649 z M 16.254305 4.8415649 C 16.577575 4.8415649 16.834115 5.0967951 16.834115 5.4177572 C 16.834115 5.7387194 16.577575 5.9939494 16.254305 5.9939494 C 15.931035 5.9939494 15.676046 5.7387194 15.676046 5.4177572 C 15.676046 5.0967951 15.931035 4.8415649 16.254305 4.8415649 z M 17.224272 6.4042603 L 16.821712 6.6988159 L 16.97054 6.900354 C 17.071677 7.0380063 17.090095 7.2275421 17.015499 7.3845622 C 16.940909 7.5415819 16.79191 7.6346763 16.632576 7.6346761 L 15.953031 7.6346761 L 15.953031 8.1343872 L 16.632576 8.1343872 C 16.988175 8.1343877 17.310992 7.9228072 17.464567 7.5995361 C 17.618142 7.2762641 17.582625 6.8932677 17.371033 6.6052816 L 17.224272 6.4042603 z " />
  </g>
</svg>
